# xmcd CD database file
#
# Track frame offsets:
#	150
#	24422
#	49755
#	76875
#	85029
#	110754
#	129755
#	157167
#	183102
#	206362
#	228002
#	245957
#	272562
#	298685
#
# Disc length: 4387 seconds
#
# Revision: 0
# Processed by: cddbd v1.5.2PL0 Copyright (c) Steve Scherf et al.
# Submitted via: CDex 1.70beta2
#
DISCID=b411210e
DTITLE=Brad Dutz - Railroads
DYEAR=1995
DGENRE=Jazz
TTITLE0=Wriggler
TTITLE1=Railroads
TTITLE2=Hanging Foliage
TTITLE3=Collapsing Inward
TTITLE4=Soybean Capitol
TTITLE5=Moose Are Browsers
TTITLE6=Tune For Tiny Man
TTITLE7=Elk will Flee
TTITLE8=Torn Apron
TTITLE9=Purchase Products
TTITLE10=Spiny Newt
TTITLE11=Purchase Services
TTITLE12=Wheat Harvest
TTITLE13=Residue Of Essence
EXTD=YEAR: 1995
EXTT0=
EXTT1=
EXTT2=
EXTT3=
EXTT4=
EXTT5=
EXTT6=
EXTT7=
EXTT8=
EXTT9=
EXTT10=
EXTT11=
EXTT12=
EXTT13=
PLAYORDER=
